<svg xmlns="http://www.w3.org/2000/svg" xmlns:xlink="http://www.w3.org/1999/xlink" zoomAndPan="magnify" preserveAspectRatio="xMidYMid meet" version="1.0" viewBox="1.14 118.26 287.49 65.63"><defs><g/></defs><g fill="#000000" fill-opacity="1"><g transform="translate(0.000006, 166.811709)"><g><path d="M 17.296875 0.5625 C 13.554688 0.5625 10.269531 -0.359375 7.4375 -2.203125 C 4.601562 -4.046875 2.503906 -6.289062 1.140625 -8.9375 L 8.859375 -13.75 C 9.660156 -12.09375 10.789062 -10.753906 12.25 -9.734375 C 13.71875 -8.722656 15.421875 -8.21875 17.359375 -8.21875 C 19.015625 -8.21875 20.300781 -8.570312 21.21875 -9.28125 C 22.144531 -9.988281 22.609375 -10.9375 22.609375 -12.125 C 22.609375 -13.351562 22.132812 -14.34375 21.1875 -15.09375 C 20.25 -15.851562 19.035156 -16.492188 17.546875 -17.015625 C 16.054688 -17.535156 14.472656 -18.085938 12.796875 -18.671875 C 11.117188 -19.265625 9.535156 -20.03125 8.046875 -20.96875 C 6.554688 -21.914062 5.335938 -23.144531 4.390625 -24.65625 C 3.453125 -26.175781 2.984375 -28.140625 2.984375 -30.546875 C 2.984375 -33.378906 3.644531 -35.71875 4.96875 -37.5625 C 6.289062 -39.40625 8 -40.785156 10.09375 -41.703125 C 12.195312 -42.628906 14.359375 -43.09375 16.578125 -43.09375 C 19.234375 -43.09375 21.691406 -42.535156 23.953125 -41.421875 C 26.222656 -40.316406 28.140625 -38.863281 29.703125 -37.0625 L 23.46875 -31.109375 C 22.425781 -32.296875 21.3125 -33.207031 20.125 -33.84375 C 18.945312 -34.476562 17.742188 -34.796875 16.515625 -34.796875 C 15.378906 -34.796875 14.410156 -34.507812 13.609375 -33.9375 C 12.804688 -33.375 12.40625 -32.476562 12.40625 -31.25 C 12.40625 -30.03125 12.875 -29.0625 13.8125 -28.34375 C 14.757812 -27.632812 15.976562 -27.019531 17.46875 -26.5 C 18.957031 -25.988281 20.53125 -25.425781 22.1875 -24.8125 C 23.84375 -24.195312 25.410156 -23.390625 26.890625 -22.390625 C 28.378906 -21.398438 29.597656 -20.085938 30.546875 -18.453125 C 31.492188 -16.828125 31.96875 -14.691406 31.96875 -12.046875 C 31.96875 -9.398438 31.289062 -7.128906 29.9375 -5.234375 C 28.59375 -3.347656 26.8125 -1.910156 24.59375 -0.921875 C 22.375 0.0664062 19.941406 0.5625 17.296875 0.5625 Z M 17.296875 0.5625 "/></g></g></g><g fill="#000000" fill-opacity="1"><g transform="translate(30.762017, 166.811709)"><g><path d="M 8.859375 -33.09375 C 7.535156 -33.09375 6.375 -33.585938 5.375 -34.578125 C 4.382812 -35.578125 3.890625 -36.738281 3.890625 -38.0625 C 3.890625 -39.4375 4.382812 -40.609375 5.375 -41.578125 C 6.375 -42.546875 7.535156 -43.03125 8.859375 -43.03125 C 10.234375 -43.03125 11.40625 -42.546875 12.375 -41.578125 C 13.34375 -40.609375 13.828125 -39.4375 13.828125 -38.0625 C 13.828125 -36.738281 13.34375 -35.578125 12.375 -34.578125 C 11.40625 -33.585938 10.234375 -33.09375 8.859375 -33.09375 Z M 4.328125 0 L 4.328125 -28.359375 L 13.328125 -28.359375 L 13.328125 0 Z M 4.328125 0 "/></g></g></g><g fill="#000000" fill-opacity="1"><g transform="translate(45.646757, 166.811709)"><g><path d="M 37.984375 -28.921875 C 41.109375 -28.921875 43.507812 -27.914062 45.1875 -25.90625 C 46.863281 -23.894531 47.703125 -21.238281 47.703125 -17.9375 L 47.703125 0 L 38.703125 0 L 38.703125 -16.4375 C 38.703125 -17.664062 38.3125 -18.71875 37.53125 -19.59375 C 36.75 -20.46875 35.742188 -20.90625 34.515625 -20.90625 C 33.148438 -20.90625 32.132812 -20.421875 31.46875 -19.453125 C 30.8125 -18.484375 30.484375 -17.476562 30.484375 -16.4375 L 30.484375 0 L 21.40625 0 L 21.40625 -16.4375 C 21.40625 -17.664062 21.023438 -18.71875 20.265625 -19.59375 C 19.515625 -20.46875 18.523438 -20.90625 17.296875 -20.90625 C 15.921875 -20.90625 14.898438 -20.421875 14.234375 -19.453125 C 13.578125 -18.484375 13.25 -17.476562 13.25 -16.4375 L 13.25 0 L 4.1875 0 L 4.1875 -28.359375 L 13.25 -28.359375 L 13.25 -24.875 C 14.195312 -26.101562 15.316406 -27.082031 16.609375 -27.8125 C 17.910156 -28.550781 19.367188 -28.921875 20.984375 -28.921875 C 22.773438 -28.921875 24.367188 -28.46875 25.765625 -27.5625 C 27.160156 -26.664062 28.257812 -25.460938 29.0625 -23.953125 C 29.957031 -25.515625 31.160156 -26.734375 32.671875 -27.609375 C 34.179688 -28.484375 35.953125 -28.921875 37.984375 -28.921875 Z M 37.984375 -28.921875 "/></g></g></g><g fill="#000000" fill-opacity="1"><g transform="translate(94.128937, 166.811709)"><g><path d="M 21.265625 -21.328125 L 14.53125 -21.328125 L 14.53125 -11.203125 C 14.53125 -10.015625 14.835938 -9.078125 15.453125 -8.390625 C 16.066406 -7.710938 16.847656 -7.375 17.796875 -7.375 L 21.1875 -7.375 L 21.1875 -0.359375 C 20.863281 -0.117188 20.265625 0.09375 19.390625 0.28125 C 18.515625 0.46875 17.601562 0.5625 16.65625 0.5625 C 14.664062 0.5625 12.820312 0.09375 11.125 -0.84375 C 9.425781 -1.789062 8.066406 -3.078125 7.046875 -4.703125 C 6.035156 -6.335938 5.53125 -8.148438 5.53125 -10.140625 L 5.53125 -21.328125 L 0.78125 -21.328125 L 0.78125 -28.359375 L 5.53125 -28.359375 L 5.53125 -39.265625 L 14.53125 -39.265625 L 14.53125 -28.359375 L 21.265625 -28.359375 Z M 21.265625 -21.328125 "/></g></g></g><g fill="#000000" fill-opacity="1"><g transform="translate(113.975323, 166.811709)"><g><path d="M 21.1875 -28.921875 C 21.613281 -28.921875 22.023438 -28.894531 22.421875 -28.84375 C 22.828125 -28.800781 23.195312 -28.734375 23.53125 -28.640625 L 23.53125 -20.625 C 23.195312 -20.71875 22.804688 -20.785156 22.359375 -20.828125 C 21.910156 -20.878906 21.425781 -20.90625 20.90625 -20.90625 C 18.6875 -20.90625 16.851562 -20.265625 15.40625 -18.984375 C 13.96875 -17.710938 13.25 -15.894531 13.25 -13.53125 L 13.25 0 L 4.1875 0 L 4.1875 -28.359375 L 13.25 -28.359375 L 13.25 -24.453125 C 14.195312 -25.828125 15.34375 -26.914062 16.6875 -27.71875 C 18.039062 -28.519531 19.539062 -28.921875 21.1875 -28.921875 Z M 21.1875 -28.921875 "/></g></g></g><g fill="#000000" fill-opacity="1"><g transform="translate(134.530513, 166.811709)"><g><path d="M 18 0.5625 C 14.832031 0.5625 12.066406 -0.0703125 9.703125 -1.34375 C 7.347656 -2.625 5.507812 -4.375 4.1875 -6.59375 C 2.863281 -8.8125 2.203125 -11.335938 2.203125 -14.171875 C 2.203125 -17.003906 2.863281 -19.53125 4.1875 -21.75 C 5.507812 -23.976562 7.347656 -25.726562 9.703125 -27 C 12.066406 -28.28125 14.832031 -28.921875 18 -28.921875 C 21.164062 -28.921875 23.929688 -28.28125 26.296875 -27 C 28.660156 -25.726562 30.488281 -23.976562 31.78125 -21.75 C 33.082031 -19.53125 33.734375 -17.003906 33.734375 -14.171875 C 33.734375 -11.335938 33.082031 -8.8125 31.78125 -6.59375 C 30.488281 -4.375 28.660156 -2.625 26.296875 -1.34375 C 23.929688 -0.0703125 21.164062 0.5625 18 0.5625 Z M 18 -7.4375 C 19.9375 -7.488281 21.539062 -8.148438 22.8125 -9.421875 C 24.09375 -10.703125 24.734375 -12.285156 24.734375 -14.171875 C 24.734375 -16.109375 24.09375 -17.703125 22.8125 -18.953125 C 21.539062 -20.210938 19.9375 -20.863281 18 -20.90625 C 16.0625 -20.863281 14.453125 -20.210938 13.171875 -18.953125 C 11.898438 -17.703125 11.265625 -16.109375 11.265625 -14.171875 C 11.265625 -12.285156 11.898438 -10.703125 13.171875 -9.421875 C 14.453125 -8.148438 16.0625 -7.488281 18 -7.4375 Z M 18 -7.4375 "/></g></g></g><g fill="#000000" fill-opacity="1"><g transform="translate(167.702464, 166.811709)"><g><path d="M 21.328125 -28.921875 C 23.929688 -28.921875 26.285156 -28.257812 28.390625 -26.9375 C 30.492188 -25.613281 32.171875 -23.835938 33.421875 -21.609375 C 34.671875 -19.390625 35.296875 -16.910156 35.296875 -14.171875 C 35.296875 -11.429688 34.671875 -8.953125 33.421875 -6.734375 C 32.171875 -4.515625 30.492188 -2.742188 28.390625 -1.421875 C 26.285156 -0.0976562 23.929688 0.5625 21.328125 0.5625 C 19.722656 0.5625 18.25 0.289062 16.90625 -0.25 C 15.5625 -0.789062 14.34375 -1.535156 13.25 -2.484375 L 13.25 17.078125 L 4.1875 17.015625 L 4.1875 -28.359375 L 13.25 -28.28125 L 13.25 -25.875 C 14.34375 -26.8125 15.5625 -27.550781 16.90625 -28.09375 C 18.25 -28.644531 19.722656 -28.921875 21.328125 -28.921875 Z M 19.5625 -7.4375 C 21.445312 -7.4375 23.039062 -8.085938 24.34375 -9.390625 C 25.644531 -10.691406 26.296875 -12.285156 26.296875 -14.171875 C 26.296875 -16.066406 25.644531 -17.660156 24.34375 -18.953125 C 23.039062 -20.253906 21.445312 -20.90625 19.5625 -20.90625 C 17.675781 -20.90625 16.082031 -20.253906 14.78125 -18.953125 C 13.476562 -17.660156 12.828125 -16.066406 12.828125 -14.171875 C 12.828125 -12.285156 13.476562 -10.691406 14.78125 -9.390625 C 16.082031 -8.085938 17.675781 -7.4375 19.5625 -7.4375 Z M 19.5625 -7.4375 "/></g></g></g><g fill="#000000" fill-opacity="1"><g transform="translate(202.362907, 166.811709)"><g><path d="M 18 0.5625 C 14.832031 0.5625 12.066406 -0.0703125 9.703125 -1.34375 C 7.347656 -2.625 5.507812 -4.375 4.1875 -6.59375 C 2.863281 -8.8125 2.203125 -11.335938 2.203125 -14.171875 C 2.203125 -17.003906 2.863281 -19.53125 4.1875 -21.75 C 5.507812 -23.976562 7.347656 -25.726562 9.703125 -27 C 12.066406 -28.28125 14.832031 -28.921875 18 -28.921875 C 21.164062 -28.921875 23.929688 -28.28125 26.296875 -27 C 28.660156 -25.726562 30.488281 -23.976562 31.78125 -21.75 C 33.082031 -19.53125 33.734375 -17.003906 33.734375 -14.171875 C 33.734375 -11.335938 33.082031 -8.8125 31.78125 -6.59375 C 30.488281 -4.375 28.660156 -2.625 26.296875 -1.34375 C 23.929688 -0.0703125 21.164062 0.5625 18 0.5625 Z M 18 -7.4375 C 19.9375 -7.488281 21.539062 -8.148438 22.8125 -9.421875 C 24.09375 -10.703125 24.734375 -12.285156 24.734375 -14.171875 C 24.734375 -16.109375 24.09375 -17.703125 22.8125 -18.953125 C 21.539062 -20.210938 19.9375 -20.863281 18 -20.90625 C 16.0625 -20.863281 14.453125 -20.210938 13.171875 -18.953125 C 11.898438 -17.703125 11.265625 -16.109375 11.265625 -14.171875 C 11.265625 -12.285156 11.898438 -10.703125 13.171875 -9.421875 C 14.453125 -8.148438 16.0625 -7.488281 18 -7.4375 Z M 18 -7.4375 "/></g></g></g><g fill="#000000" fill-opacity="1"><g transform="translate(235.534858, 166.811709)"><g><path d="M 4.1875 0 L 4.1875 -48.546875 L 13.25 -48.546875 L 13.25 0 Z M 4.1875 0 "/></g></g></g><g fill="#000000" fill-opacity="1"><g transform="translate(250.136078, 166.811709)"><g><path d="M 8.859375 -33.09375 C 7.535156 -33.09375 6.375 -33.585938 5.375 -34.578125 C 4.382812 -35.578125 3.890625 -36.738281 3.890625 -38.0625 C 3.890625 -39.4375 4.382812 -40.609375 5.375 -41.578125 C 6.375 -42.546875 7.535156 -43.03125 8.859375 -43.03125 C 10.234375 -43.03125 11.40625 -42.546875 12.375 -41.578125 C 13.34375 -40.609375 13.828125 -39.4375 13.828125 -38.0625 C 13.828125 -36.738281 13.34375 -35.578125 12.375 -34.578125 C 11.40625 -33.585938 10.234375 -33.09375 8.859375 -33.09375 Z M 4.328125 0 L 4.328125 -28.359375 L 13.328125 -28.359375 L 13.328125 0 Z M 4.328125 0 "/></g></g></g><g fill="#000000" fill-opacity="1"><g transform="translate(265.020806, 166.811709)"><g><path d="M 13.328125 0.5625 C 10.816406 0.5625 8.40625 -0.0234375 6.09375 -1.203125 C 3.78125 -2.390625 2.195312 -4.066406 1.34375 -6.234375 L 8.015625 -9.5625 C 8.671875 -8.382812 9.4375 -7.59375 10.3125 -7.1875 C 11.1875 -6.789062 12.003906 -6.59375 12.765625 -6.59375 C 13.515625 -6.59375 14.113281 -6.742188 14.5625 -7.046875 C 15.007812 -7.359375 15.234375 -7.796875 15.234375 -8.359375 C 15.234375 -8.878906 14.984375 -9.335938 14.484375 -9.734375 C 13.992188 -10.140625 13.113281 -10.582031 11.84375 -11.0625 C 10.75 -11.476562 9.503906 -12.003906 8.109375 -12.640625 C 6.722656 -13.285156 5.507812 -14.175781 4.46875 -15.3125 C 3.425781 -16.445312 2.90625 -17.957031 2.90625 -19.84375 C 2.90625 -21.445312 3.34375 -22.929688 4.21875 -24.296875 C 5.09375 -25.671875 6.320312 -26.785156 7.90625 -27.640625 C 9.488281 -28.492188 11.34375 -28.921875 13.46875 -28.921875 C 15.445312 -28.921875 17.273438 -28.566406 18.953125 -27.859375 C 20.628906 -27.148438 21.988281 -26.25 23.03125 -25.15625 L 18.5 -20.0625 C 18.070312 -20.582031 17.46875 -21.050781 16.6875 -21.46875 C 15.90625 -21.894531 15.046875 -22.109375 14.109375 -22.109375 C 13.347656 -22.109375 12.78125 -21.953125 12.40625 -21.640625 C 12.03125 -21.335938 11.84375 -20.953125 11.84375 -20.484375 C 11.84375 -19.960938 12.085938 -19.546875 12.578125 -19.234375 C 13.078125 -18.929688 13.847656 -18.566406 14.890625 -18.140625 C 16.253906 -17.617188 17.597656 -16.976562 18.921875 -16.21875 C 20.242188 -15.46875 21.351562 -14.488281 22.25 -13.28125 C 23.15625 -12.082031 23.609375 -10.535156 23.609375 -8.640625 C 23.609375 -5.992188 22.695312 -3.796875 20.875 -2.046875 C 19.050781 -0.304688 16.535156 0.5625 13.328125 0.5625 Z M 13.328125 0.5625 "/></g></g></g></svg>